<svg id="Layer_1" data-name="Layer 1" xmlns="http://www.w3.org/2000/svg" xmlns:xlink="http://www.w3.org/1999/xlink" viewBox="0 0 300 300"><defs><style>.cls-1{fill:#98a3b2;}.cls-2{fill:#c3cfde;}.cls-3,.cls-4,.cls-5,.cls-6{stroke:#d3b14d;stroke-miterlimit:10;}.cls-3{fill:url(#linear-gradient);}.cls-4{fill:url(#linear-gradient-2);}.cls-5{fill:url(#linear-gradient-3);}.cls-6{fill:url(#linear-gradient-4);}</style><linearGradient id="linear-gradient" x1="400.59" y1="350.36" x2="305.8" y2="295.63" gradientUnits="userSpaceOnUse"><stop offset="0" stop-color="#ead68c"/><stop offset="1" stop-color="#916c28"/></linearGradient><linearGradient id="linear-gradient-2" x1="392.33" y1="435.9" x2="289.49" y2="376.52" xlink:href="#linear-gradient"/><linearGradient id="linear-gradient-3" x1="312.92" y1="309.94" x2="248.21" y2="272.58" xlink:href="#linear-gradient"/><linearGradient id="linear-gradient-4" x1="339.03" y1="249.23" x2="287.18" y2="219.29" xlink:href="#linear-gradient"/></defs><circle class="cls-1" cx="150" cy="150" r="150"/><circle class="cls-2" cx="150" cy="150" r="150"/><path class="cls-3" d="M304.73,351.26V297.48c8.44,3.67,16.51,7.09,24.45,10.78.87.41,1.36,2.43,1.39,3.71.12,7.77.06,15.54.06,24,8.55-8.43,16.57-16.29,24.54-24.2,4.73-4.68,8.63-11.18,14.3-13.66,5.48-2.39,12.76-.69,19.25-.74,5.32,0,10.65,0,17.43,0l-56.46,57.54L380,386.11c-7.12,0-13.44,1.7-19.17-4.8-8.57-9.73-18.23-18.5-27.62-27.48a10.08,10.08,0,0,0-6-2.46C319.83,351.08,312.52,351.26,304.73,351.26Z" transform="translate(-170 -170)"/><path class="cls-4" d="M300,358.33c8,0,15.66-.15,23.3.12a8.57,8.57,0,0,1,5,2.5c9.64,9.21,19.27,18.43,28.58,27.95,3.17,3.23,6.33,5.22,10.88,4.42,5.81-1,9.88,1.45,13.86,5.64,6.51,6.87,13.71,13.09,20.62,19.59l-.92,1.78c-2.72,0-5.43,0-8.15,0-9.3-.14-19.62,2.15-27.62-1.15-7.84-3.23-13.35-12.15-19.84-18.61S333.06,387.89,326,380.78v40.14H300Z" transform="translate(-170 -170)"/><path class="cls-5" d="M290.41,236.26h20.14v44l8.79.64c3.26,20.2-12.12,44.35-34.75,54.86-22.14,10.29-51.47,5.75-66.74-10.62,10.45-4.35,20.73-8.7,31.09-12.86,1.24-.5,2.93-.18,4.36.05,19.55,3.14,36.66-10.44,37-29.76.26-13.34.06-26.68.07-40Z" transform="translate(-170 -170)"/><path class="cls-6" d="M317,228.41H292V211h36v57.33H317Z" transform="translate(-170 -170)"/></svg>