<?xml version="1.0" standalone="no"?>
<!DOCTYPE svg PUBLIC "-//W3C//DTD SVG 20010904//EN"
 "http://www.w3.org/TR/2001/REC-SVG-20010904/DTD/svg10.dtd">
<svg version="1.0" xmlns="http://www.w3.org/2000/svg"
 width="195.000000pt" height="218.000000pt" viewBox="0 0 195.000000 218.000000"
 preserveAspectRatio="xMidYMid meet">

<g transform="translate(0.000000,218.000000) scale(0.100000,-0.100000)"
fill="#000000" stroke="none">
<path d="M1037 2112 c-25 -27 -38 -108 -35 -208 2 -71 6 -89 18 -89 10 0 17
16 22 55 17 131 30 190 42 190 19 0 94 -55 153 -113 l52 -51 142 -1 141 -1 57
55 c31 31 79 69 108 84 60 32 56 37 73 -88 7 -55 7 -232 0 -575 -11 -555 -19
-655 -85 -1010 -34 -183 -38 -232 -22 -254 20 -27 37 -11 37 34 0 21 18 119
40 217 77 351 90 509 90 1123 -1 551 -11 640 -73 640 -32 0 -148 -73 -202
-128 -48 -49 -48 -49 -94 -40 -25 5 -76 6 -113 3 l-68 -6 -72 63 c-119 104
-181 133 -211 100z"/>
<path d="M990 1713 c-6 -21 -13 -74 -16 -118 -5 -67 -3 -89 15 -135 35 -93 32
-106 -63 -215 -84 -95 -119 -148 -171 -257 -72 -150 -97 -250 -102 -408 -4
-145 9 -235 36 -235 12 0 15 26 16 145 3 267 81 495 234 684 136 169 141 186
101 307 -18 52 -20 74 -14 165 6 91 5 104 -9 104 -10 0 -20 -14 -27 -37z"/>
<path d="M1236 1714 c-24 -23 -29 -59 -14 -91 10 -21 20 -28 43 -28 52 0 71
77 29 119 -20 20 -38 20 -58 0z"/>
<path d="M1568 1719 c-10 -5 -20 -25 -24 -44 -9 -48 17 -87 54 -83 50 6 66 83
26 122 -18 18 -32 20 -56 5z"/>
<path d="M1139 869 c-16 -31 -5 -179 20 -284 11 -44 44 -147 74 -230 30 -82
60 -176 67 -207 9 -47 15 -58 31 -58 41 0 17 133 -65 355 -49 134 -61 185 -79
335 -12 106 -25 130 -48 89z"/>
<path d="M200 794 c-113 -49 -187 -211 -162 -354 30 -169 152 -297 328 -346
49 -13 109 -16 359 -15 165 1 329 6 365 12 64 10 110 30 110 49 0 18 -19 19
-86 5 -49 -10 -159 -15 -379 -17 -298 -2 -313 -2 -376 20 -118 39 -218 132
-255 234 -30 84 -18 201 29 283 42 74 132 109 170 67 23 -25 21 -46 -8 -117
-28 -69 -31 -121 -10 -172 20 -48 41 -71 87 -94 70 -36 253 -35 253 1 0 12
-21 16 -95 21 -139 8 -189 41 -197 126 -4 34 1 64 16 101 39 99 23 170 -45
198 -42 17 -60 17 -104 -2z"/>
<path d="M1483 453 c4 -108 7 -229 7 -270 0 -58 3 -75 16 -80 9 -3 20 0 25 8
13 20 11 428 -2 489 -9 40 -15 50 -31 50 -21 0 -21 -2 -15 -197z"/>
</g>
</svg>
