<svg id="Layer_1" data-name="Layer 1" xmlns="http://www.w3.org/2000/svg" viewBox="0 0 151.2 151.2"><defs><style>.cls-1{fill:#fff;}.cls-2,.cls-3{fill:none;}.cls-2{stroke:#83c0d2;stroke-width:6px;}.cls-2,.cls-3,.cls-4,.cls-5{stroke-miterlimit:10;}.cls-3{stroke:#007ca1;opacity:0.8;}.cls-3,.cls-4{stroke-width:0.75px;}.cls-4{fill:#fd0;stroke:#624733;}.cls-5{stroke:#000;}</style></defs><rect class="cls-1" width="151.2" height="151.2" rx="18"/><circle class="cls-2" cx="75.6" cy="75.77" r="64.8"/><circle class="cls-3" cx="75.85" cy="75.52" r="61.92"/><circle class="cls-3" cx="75.6" cy="75.6" r="68.04"/><path class="cls-4" d="M142,212.21c-.13-.92-.27-1.84-.4-2.76s-.26-1.77-.4-2.65a.25.25,0,0,0-.08-.15l-3.25-2.89a2.79,2.79,0,0,1-.79-1.26,1.48,1.48,0,0,1,.52-1.65,5,5,0,0,1,.82-.52l4.1-2.08a.43.43,0,0,0,.16-.17c.54-1.36,1.08-2.71,1.61-4.07a2.52,2.52,0,0,1,.55-.88,1.47,1.47,0,0,1,1.72-.34,2.44,2.44,0,0,1,.89.64l3.35,3.55a.35.35,0,0,0,.23.12l4.15.37a2.93,2.93,0,0,1,1,.28,1.55,1.55,0,0,1,.93,1.72,3.93,3.93,0,0,1-.42,1.19l-2.09,4.15a.36.36,0,0,0,0,.27l.6,2.56c.12.48.23,1,.35,1.45a3.25,3.25,0,0,1,.08,1.42,1.52,1.52,0,0,1-1.49,1.31,5.22,5.22,0,0,1-1.25-.15l-4.2-.76a.29.29,0,0,0-.22,0c-1.2.75-2.4,1.51-3.61,2.25a4.39,4.39,0,0,1-1,.48,1.27,1.27,0,0,1-1.69-.87c-.07-.19-.11-.39-.17-.59Z" transform="translate(-18.31 -91.9)"/><path class="cls-5" d="M86.89,164.79c2.12-1.28,4-2.54,6-3.6a4.38,4.38,0,0,0,2.51-4.43c-.14-5.08.48-10.12.7-15.19s1.12-10,1.18-15c0-3.71.78-7.36,1.17-11a21.15,21.15,0,0,0,0-2.87c0-.86-.14-1.77,1-2a2.38,2.38,0,0,1,2.54,1.53,16.76,16.76,0,0,1,.41,3.66,21,21,0,0,1-.55,5.92c-.33,1,.24,1.9.13,2.9a16.34,16.34,0,0,0,.05,4.63c.46,2.59-.1,5.18-.17,7.77-.06,2.74-.4,5.46-.22,8.23.16,2.57-.1,5.17-.18,7.75,0,.4,0,.79,0,1.35a21.75,21.75,0,0,0,3.91-3.42,62,62,0,0,0,10.92-14.77,49.24,49.24,0,0,0,3.59-7.24,55.31,55.31,0,0,0,2.39-9.71c.4-2.36,1.26-4.62,1.51-7a8.9,8.9,0,0,0-.27-4.37c-.41-1,.21-2.2,1.39-3s2,.13,2.78.62a17.66,17.66,0,0,0,2.29,1.43,2.28,2.28,0,0,1,1.22,2.06,18,18,0,0,1-1,8.43,36.69,36.69,0,0,0-1,5.39c-.4,2.07-.66,4.17-1.2,6.21-.18.69-.79,1.14-.91,1.81-.51,2.94-2.08,5.47-3.24,8.14a54,54,0,0,1-3.8,6.39,67.44,67.44,0,0,1-5.59,7c-.3.36-.68.66-1,1a62.22,62.22,0,0,1-7.87,6.9c-.27.19-.77.34-.67.74s.61.29.95.3a16,16,0,0,1,10.57,4.66c3.34,3.07,5.1,7,6.29,11.25.75,2.69,1.88,5.24,2.78,7.88.14.42.13.84.26,1.25,1,3.29,1.83,6.69,3.13,9.88,2.41,5.88,4.48,12,8.34,17.14,1.9,2.54,3.37,5.44,5.89,7.5,2.8,2.27,5.54,1.58,7.85-1.48.54-.72,1.41-1,1.84-1.66,1-1.62,2.24-1.59,3.78-.81a7.89,7.89,0,0,0,2.11.36c.75.13,1.17.5.86,1.33a9.84,9.84,0,0,1-6,6.09c-3.54,1.41-6.83.58-10.18-.13s-6.06-3-8.34-5.47a64.64,64.64,0,0,1-9.53-14,92.7,92.7,0,0,1-5.58-13c-1.46-4.26-2.67-8.61-4.12-12.87-1-3-1.61-6.26-3.06-9.16a24.27,24.27,0,0,0-1.33-2.77,5.23,5.23,0,0,0-8.09-1.08c-.17.16-.35.4-.55.44-1.9.35-1.71,1.79-1.65,3.13a64,64,0,0,1-.6,11.07c-.16,1.28,0,2.54-.2,3.75-.46,2.46-.16,4.95-.58,7.41a28.15,28.15,0,0,0-.08,3.68c-.13,3.72-.38,7.43-.37,11.14,0,3.35.13,6.69.1,10a38.37,38.37,0,0,1,0,4.29c-.08.65-.3.86-1,1a4.28,4.28,0,0,1-4.3-1.37,1.77,1.77,0,0,1-.62-1.36c-.06-3.75-.07-7.5-.27-11.24-.36-6.55.06-13.09.19-19.63.1-5.25.83-10.49,1.27-15.73.13-1.67.19-3.34.31-5,0-.8-.31-.9-.94-.62L87.55,170a1.26,1.26,0,0,0-.84,1.34c-.18,2.69-.13,5.38-.46,8.07-.3,2.48-.06,5-.27,7.51-.27,3.23-.07,6.54-1.29,9.65a2.39,2.39,0,0,0-.17.7c-.23,3.15-1.69,5.89-2.86,8.74-.63,1.56-1.64,2.9-2.21,4.47a1.62,1.62,0,0,1-.44.71c-1.87,1.41-2.91,3.57-4.65,5.09a22.09,22.09,0,0,1-11.72,5.33,20.51,20.51,0,0,1-10.7-.92,21.17,21.17,0,0,1-5.41-3.45,38.9,38.9,0,0,1-4-3.51A20.34,20.34,0,0,1,39.06,208c-2-4.4-1.6-9-1.81-13.62a4.28,4.28,0,0,1,.49-1.68c1.64-4.6,4.11-8.58,8.51-11.09a21.82,21.82,0,0,0,3.19-2.32,8,8,0,0,1,3.62-1.73c1.42-.3,2.57-1.22,3.89-1.74,2.7-1.07,5.46-1.91,8.24-2.72a65.71,65.71,0,0,0,8-2.44q2.5-1.08,5.06-2a1.72,1.72,0,0,0,1.28-1.86c0-5-.27-10-.3-15s.1-10.13,0-15.2c0-2.26,0-4.52,0-7a14.17,14.17,0,0,0-3.86,1.89c-2.59,1.58-5.11,1.32-7.73,0s-4.49-3.64-6.52-5.7c-1.31-1.33-1.88-1.39-3.39-.3a26.83,26.83,0,0,0-3.57,3.5c-1.53,1.62-2.81,3.43-4.32,5.06-.37.4-.82.57-1.26.18s-.16-.78.18-1.19a33.91,33.91,0,0,0,4.53-6.54A7.71,7.71,0,0,1,64.57,124a33.93,33.93,0,0,1,4.66,4.78c1.65,1.88,3.12,1.34,4.8.1,2.46-1.8,3.5-4.51,4.34-7.36a93.88,93.88,0,0,0,1.77-9.38c.42-2.21,2.19-3,4.12-1.74a4.48,4.48,0,0,1,2.16,4.93,24.69,24.69,0,0,0,0,4.55,116.2,116.2,0,0,1,.34,13.59c-.22,3.55.21,7.13.24,10.7,0,3.77-.13,7.53-.13,11.3,0,2.73.13,5.46.19,8.19A8.43,8.43,0,0,1,86.89,164.79Zm-7.66,10.6h0c0-.12,0-.24,0-.36.07-2,.06-2-1.74-1.34-5.63,2.16-11.59,3.38-17.07,6-2.2,1-4.26,2.3-6.36,3.49a55.11,55.11,0,0,0-5.44,4,13.29,13.29,0,0,0-4,4.08,14.45,14.45,0,0,0-2,8.16,24.67,24.67,0,0,0,3.09,10.26c1.36,2.46,3.72,3.9,5.76,5.66a10.07,10.07,0,0,0,8,2.56c1.27-.14,2.23-1.05,3.37-1.38a14.37,14.37,0,0,0,6-4,27,27,0,0,0,4.52-6.26,41,41,0,0,0,5.1-17.16C78.84,184.55,79,180,79.23,175.39Z" transform="translate(-18.31 -91.9)"/><path class="cls-4" d="M36,126c0-.85,0-1.71.08-2.56L36.1,121a.27.27,0,0,0-.05-.15c-.83-1-1.66-2.08-2.47-3.13a2.38,2.38,0,0,1-.52-1.27,1.34,1.34,0,0,1,.73-1.4,4,4,0,0,1,.83-.34c1.34-.42,2.69-.82,4-1.23a.29.29,0,0,0,.16-.13c.71-1.14,1.41-2.28,2.11-3.42a2.52,2.52,0,0,1,.63-.71,1.37,1.37,0,0,1,1.61,0,2.32,2.32,0,0,1,.71.72l2.46,3.75a.29.29,0,0,0,.19.13l3.69,1a2.72,2.72,0,0,1,.9.41,1.43,1.43,0,0,1,.56,1.7,3.66,3.66,0,0,1-.57,1l-2.55,3.41a.42.42,0,0,0-.07.24c0,.8.1,1.6.14,2.41,0,.45,0,.91.08,1.36a3.05,3.05,0,0,1-.15,1.31,1.39,1.39,0,0,1-1.56.94,5.26,5.26,0,0,1-1.11-.33l-3.67-1.37a.28.28,0,0,0-.2,0l-3.62,1.46a4.43,4.43,0,0,1-1,.27A1.17,1.17,0,0,1,36,126.54c0-.18,0-.37-.06-.56Z" transform="translate(-18.31 -91.9)"/></svg>